<?xml version="1.0" encoding="UTF-8" standalone="no"?>
<!-- Generator: Adobe Illustrator 18.1.1, SVG Export Plug-In . SVG Version: 6.00 Build 0)  -->
<!DOCTYPE svg  PUBLIC '-//W3C//DTD SVG 1.1//EN'  'http://www.w3.org/Graphics/SVG/1.1/DTD/svg11.dtd'>
<svg id="Ebene_1" xmlns="http://www.w3.org/2000/svg" xml:space="preserve" viewBox="0 0 199 82" version="1.1" y="0px" x="0px" xmlns:xlink="http://www.w3.org/1999/xlink" enable-background="new 0 0 199 82">
	<path d="m65.8 13v24.3c-0.3 10.5-6.5 20.6-16.3 25.3-2.5 1.1-5.1 2-7.9 2.6-6.5-1.7-12.7-4.9-17.2-10.6-4.8-5.9-6.6-13.3-6.4-21.2v-20.4h47.8z" fill="#f00"/>
	<path d="m64 14.7l-0.2 22.8c-0.5 8.7-4.7 16.9-12.4 21.7-2.9 1.9-6.2 3-9.5 3.9-6.1-1.6-11.9-4.5-16-9.9-4.1-5.1-5.7-11.2-5.8-17.9l-0.2-20.7h44.1z" fill="#fff"/>
	<path d="m60.8 16.1h1.8v18.8c0.2 9.9-4.6 19.3-13.6 24.1-2.2 1.2-4.7 2.1-7.2 2.8-6-1.5-11.6-4.8-15.5-10.2-3.2-4.4-4.7-9.4-5-15v-20.5h25.9 13.6z" fill="#f00"/>
	<path d="m41.9 26.9l6.4-6.1c-0.8 2.2-6.3 15.6-6.3 15.6l-6.4-15.7 6.3 6.2z" fill="#fff"/>
	<path d="m42 36.4c-0.4 0.2-14.9 5.9-15.6 6.2 1.9-2 4.1-4 6.1-6.1l-5.8-6.2 15.3 6.1z" fill="#fff"/>
	<path d="m57.4 30.3s-3.8 4.2-5.8 6.1l5.9 6c-0.6-0.1-15.5-6-15.5-6s14.8-5.9 15.4-6.1" fill="#fff"/>
	<path d="m48.1 52c-1-0.9-4.1-4.1-6.1-6.1-2.2 2-4.2 4.3-6.4 6.2 0.2-0.6 6.4-15.7 6.4-15.7 0.7 1.7 5.9 14.9 6.1 15.6" fill="#fff"/>
	<path d="m183.9 65.2h1v-3.4h0.8v-0.7h-0.8v-0.7c0-0.3 0.2-0.5 0.5-0.5 0.1 0 0.3 0 0.4 0.1v-0.7c-0.2 0-0.4-0.1-0.7-0.1-0.9 0-1.2 0.5-1.2 1.1v0.8h-0.7v0.7h0.7v3.4zm-3.5-2.4c0-0.5 0.2-1.1 0.7-1.1 0.4 0 0.7 0.4 0.7 1.1h-1.4zm2.1 1.4c-0.2 0.1-0.5 0.3-1.1 0.3-0.8 0-1-0.4-1-1.1h2.4v-0.2c0-1.7-0.8-2.2-1.6-2.2-1 0-1.7 0.9-1.7 2.2 0 1.1 0.6 2.1 1.9 2.1 0.6 0 1-0.2 1.2-0.3l-0.1-0.8zm-5-3.9h1v-1h-1v1zm0 4.9h1v-4.1h-1v4.1zm-2.1 0h1v-6h-1v6zm-3.3-2.4c0-0.5 0.2-1.1 0.7-1.1 0.4 0 0.7 0.4 0.7 1.1h-1.4zm2.2 1.4c-0.2 0.1-0.5 0.3-1.1 0.3-0.8 0-1-0.4-1-1.1h2.4v-0.2c0-1.7-0.8-2.2-1.6-2.2-1 0-1.7 0.9-1.7 2.2 0 1.1 0.6 2.1 1.9 2.1 0.6 0 1-0.2 1.2-0.3l-0.1-0.8zm-6.4-2.1v-1.6h0.4c0.6 0 0.9 0.2 0.9 0.8s-0.4 0.8-0.9 0.8h-0.4zm-1 3.1h1v-2.4h0.2c0.4 0 0.6 0.1 0.8 0.6l0.6 1.8h1.1l-0.7-2.1c-0.2-0.5-0.4-0.6-0.6-0.6 0.6-0.1 1.1-0.6 1.1-1.3 0-1-0.7-1.5-1.7-1.5h-1.7v5.5zm-5.4-2.4c0-0.5 0.2-1.1 0.7-1.1 0.4 0 0.7 0.4 0.7 1.1h-1.4zm2.1 1.4c-0.2 0.1-0.5 0.3-1.1 0.3-0.8 0-1-0.4-1-1.1h2.4v-0.2c0-1.7-0.8-2.2-1.6-2.2-1 0-1.7 0.9-1.7 2.2 0 1.1 0.6 2.1 1.9 2.1 0.6 0 1-0.2 1.2-0.3l-0.1-0.8zm-6.4-1.1c0-0.8 0.2-1.4 0.7-1.4s0.8 0.6 0.8 1.4-0.2 1.4-0.8 1.4-0.7-0.4-0.7-1.4m1.5-3.9v2.5c-0.1-0.3-0.5-0.7-1.1-0.7-0.9 0-1.4 0.8-1.4 2.1 0 1.1 0.4 2.1 1.4 2.1 0.6 0 0.9-0.4 1.1-0.7v0.6h0.9v-0.7-5.3h-0.9zm-4.5 1.1h1v-1h-1v1zm0.1 4.9h1v-4.1h-1v4.1zm-2.8 0h1.1l1.1-4.1h-1l-0.7 3.2-0.7-3.2h-1.1l-0.7 3.2-0.7-3.2h-1l1.1 4.1h1.1l0.7-3.2 0.8 3.2zm-6.8-2.1c0-0.8 0.2-1.4 0.7-1.4s0.8 0.6 0.8 1.4-0.2 1.4-0.8 1.4c-0.5 0-0.7-0.4-0.7-1.4m1.5-3.9v2.5c-0.1-0.3-0.5-0.7-1.1-0.7-0.9 0-1.4 0.8-1.4 2.1 0 1.1 0.4 2.1 1.4 2.1 0.6 0 0.9-0.4 1.1-0.7v0.6h0.9v-0.7-5.3h-0.9zm-4.4 6h1v-6h-1v6zm-2.9 0h1v-2.2c0-0.8 0.4-1 0.9-1h0.3v-0.9h-0.2c-0.6 0-0.9 0.5-1 0.8v-0.7h-0.9v0.7 3.3zm-4.5-2.1c0 1.7 1 2.1 1.8 2.1s1.8-0.4 1.8-2.1-1-2.1-1.8-2.1-1.8 0.5-1.8 2.1m1 0c0-0.7 0.2-1.4 0.8-1.4s0.8 0.7 0.8 1.4-0.1 1.4-0.8 1.4c-0.6 0.1-0.8-0.7-0.8-1.4m-3.5 2.1h1.2l1.2-5.5h-0.9l-0.8 4.3-0.8-4.3h-1.2l-0.8 4.3-0.8-4.3h-1l1.1 5.5h1.2l0.9-4.5 0.7 4.5zm-11.9-4.1h-0.7v0.7h0.7v2.2c0 0.9 0.4 1.2 1.2 1.2 0.3 0 0.5-0.1 0.7-0.1v-0.7c-0.1 0-0.2 0.1-0.4 0.1-0.3 0-0.4-0.1-0.4-0.6v-2.1h0.8v-0.7h-0.9v-1.1l-1 0.3v0.8zm-2.4 4.1h1v-6h-1v6zm-6.2 0h0.9v-5.5h-1.5l-1.2 4.1-1.2-4.1h-1.4v5.5h0.9v-4.6l1.3 4.6h0.7l1.4-4.6v4.6zm-9 0h1v-3.4h0.8v-0.7h-0.8v-0.7c0-0.3 0.2-0.5 0.5-0.5 0.1 0 0.3 0 0.4 0.1v-0.7c-0.2 0-0.4-0.1-0.7-0.1-0.9 0-1.2 0.5-1.2 1.1v0.8h-0.7v0.7h0.7v3.4zm-4.8-2.1c0 1.7 1 2.1 1.8 2.1s1.8-0.4 1.8-2.1c0-1.7-1-2.1-1.8-2.1s-1.8 0.5-1.8 2.1m1 0c0-0.7 0.2-1.4 0.8-1.4s0.8 0.7 0.8 1.4-0.1 1.4-0.8 1.4c-0.6 0.1-0.8-0.7-0.8-1.4m-5.9 2.1h1v-2.2c0-0.8 0.4-1 0.9-1h0.3v-0.9h-0.2c-0.6 0-0.9 0.5-1 0.8v-0.7h-0.9v0.7 3.3zm-3.2-2.4c0-0.5 0.2-1.1 0.7-1.1 0.4 0 0.7 0.4 0.7 1.1h-1.4zm2.1 1.4c-0.2 0.1-0.5 0.3-1.1 0.3-0.8 0-1-0.4-1-1.1h2.4v-0.2c0-1.7-0.8-2.2-1.6-2.2-1 0-1.7 0.9-1.7 2.2 0 1.1 0.6 2.1 1.9 2.1 0.6 0 1-0.2 1.2-0.3l-0.1-0.8zm-6.4-1.1c0-0.8 0.2-1.4 0.7-1.4s0.8 0.6 0.8 1.4-0.2 1.4-0.8 1.4c-0.5 0-0.7-0.4-0.7-1.4m1.5-3.9v2.5c-0.1-0.3-0.5-0.7-1.1-0.7-0.9 0-1.4 0.8-1.4 2.1 0 1.1 0.4 2.1 1.4 2.1 0.6 0 0.9-0.4 1.1-0.7v0.6h0.9v-0.7-5.3h-0.9zm-5.1 6h1v-2.2c0-0.8 0.4-1 0.9-1h0.3v-0.9h-0.2c-0.6 0-0.9 0.5-1 0.8v-0.7h-0.9v0.7 3.3zm-5.4-2.8c0 2 1.1 2.9 2.2 2.9 1.2 0 2.2-0.9 2.2-2.9s-1.1-2.9-2.2-2.9c-1.1 0.1-2.2 0.9-2.2 2.9m1.1 0c0-1.5 0.5-2.1 1.2-2.1 0.6 0 1.2 0.5 1.2 2.1 0 1.5-0.5 2.1-1.2 2.1s-1.2-0.6-1.2-2.1" fill="#1A171B"/>
	<path d="m149.8 30.1h2.7v-6.2c0-2.1 1.2-2.8 2.4-2.8 0.3 0 0.5 0 0.8 0.1v-2.6c-0.2 0-0.3-0.1-0.5-0.1-1.7 0-2.6 1.4-2.9 2.2 0-0.7-0.1-1.4-0.1-2.1h-2.5c0.1 0.5 0.1 1.2 0.1 1.9v9.6zm-8.8-6.7c0-1.5 0.6-3 2-3 1.2 0 1.9 1 1.9 3h-3.9zm5.9 4c-0.5 0.4-1.3 0.9-3 0.9-2.1 0-2.9-1.2-2.9-3.1h6.6v-0.5c0-4.6-2.1-6.1-4.6-6.1-2.9 0-4.7 2.6-4.7 6 0 3.1 1.6 5.7 5.3 5.7 1.6 0 2.8-0.5 3.4-0.7l-0.1-2.2zm-17.7 2.3c0.6 0.2 1.7 0.6 3.2 0.6 2.5 0 4.2-1.3 4.2-3.3 0-1.3-0.7-2-2.1-2.9l-1.4-0.9c-0.8-0.5-1.3-0.8-1.3-1.5s0.5-1.1 1.6-1.1c1 0 1.7 0.2 2.4 0.5l0.2-2.1c-0.3-0.1-1.4-0.5-2.9-0.5-2.4 0-3.9 1.7-3.9 3.2 0 1.8 1.3 2.5 2.4 3.2l1.1 0.7c1 0.6 1.2 1 1.2 1.4 0 0.9-0.8 1.1-1.8 1.1-1.3 0-2.4-0.6-2.9-0.7v2.3zm-8.2-6.3c0-1.5 0.6-3 2-3 1.2 0 1.9 1 1.9 3h-3.9zm5.8 4c-0.5 0.4-1.3 0.9-3 0.9-2.1 0-2.9-1.2-2.9-3.1h6.6v-0.5c0-4.6-2.1-6.1-4.6-6.1-2.9 0-4.7 2.6-4.7 6 0 3.1 1.6 5.7 5.3 5.7 1.6 0 2.8-0.5 3.4-0.7l-0.1-2.2zm-15-8.6h-1.8v2h1.8v6.2c0 2.4 1.2 3.3 3.2 3.3 0.8 0 1.4-0.2 1.8-0.4v-1.9c-0.2 0.1-0.6 0.2-1 0.2-0.8 0-1.2-0.4-1.2-1.6v-5.9h2.3v-2h-2.3v-3.2l-2.7 0.8v2.5zm-6.5 11.3h2.7v-17.1h-2.7v17.1zm-5.3-4.9c0 2-0.6 3.2-2.2 3.2-1.1 0-1.7-0.7-1.7-1.7 0-1.7 1.4-2.1 3.7-2.1h0.2v0.6zm-5.3-3.6c0.5-0.4 1.7-1.1 3.1-1.1 1.5 0 2.1 0.9 2.1 2v0.4h-0.6c-3.5 0-6 0.9-6 4 0 2.1 1.6 3.3 3.4 3.3 1.6 0 2.5-0.4 3.3-1.3 0 0 0 0.7 0.1 1.1h2.5c-0.1-0.4-0.2-1.2-0.2-2v-5c0-2.8-0.8-4.6-4.4-4.6-1.7 0-2.8 0.5-3.6 0.8l0.3 2.4zm-6.1 8.5h2.6v-15.4h-4.1l-3.3 11.5-3.2-11.5h-4.2v15.4h2.6v-12.8l3.7 12.8h2l3.9-12.8v12.8z" fill="#1A171B"/>
	<path d="m191 52h2.7v-16.5h-2.7v16.5zm-22.8 0h2.7v-6.6c0-1.5 0.5-2.7 1.9-2.7 1.1 0 1.6 0.7 1.6 2.5v6.8h2.7v-7.3c0-2.3-0.8-4.2-3.4-4.2-1.9 0-2.6 1.2-3 1.9h-0.1c0-0.6-0.1-1.2-0.1-1.7h-2.6c0.1 0.5 0.1 1.2 0.1 1.9v9.4zm-12.2-5.7c0 4.8 2.7 5.9 5 5.9s5-1.1 5-5.9c0-4.6-2.7-5.8-5-5.8s-5 1.2-5 5.8m2.9 0c0-1.9 0.4-3.9 2.2-3.9s2.2 2 2.2 3.9c0 1.9-0.4 3.9-2.2 3.9s-2.2-2-2.2-3.9m-8.1-7.8h2.8v-2.7h-2.8v2.7zm0.1 13.5h2.7v-11.3h-2.7v11.3zm-7.1-11.3h-1.8v2h1.8v6.2c0 2.4 1.2 3.3 3.2 3.3 0.8 0 1.4-0.2 1.8-0.4v-1.9c-0.2 0.1-0.6 0.2-1 0.2-0.8 0-1.2-0.4-1.2-1.6v-5.9h2.3v-2h-2.3v-3.2l-2.7 0.8v2.5zm-23.5 11.3h2.7v-6.6c0-1.5 0.5-2.7 1.9-2.7 1.1 0 1.6 0.7 1.6 2.5v6.8h2.7v-7.3c0-2.3-0.8-4.2-3.4-4.2-1.9 0-2.6 1.2-3 1.9h-0.1c0-0.6-0.1-1.2-0.1-1.7h-2.6c0.1 0.5 0.1 1.2 0.1 1.9v9.4zm-7.7 0h2.7v-6.2c0-2.1 1.2-2.8 2.4-2.8 0.3 0 0.5 0 0.8 0.1v-2.6c-0.2 0-0.3-0.1-0.5-0.1-1.7 0-2.6 1.4-2.9 2.2 0-0.7-0.1-1.4-0.1-2.1h-2.5c0.1 0.5 0.1 1.2 0.1 1.9v9.6zm-8.9-6.6c0-1.5 0.6-3 2-3 1.2 0 1.9 1 1.9 3h-3.9zm5.9 3.9c-0.5 0.4-1.3 0.9-3 0.9-2.1 0-2.9-1.2-2.9-3.1h6.6v-0.5c0-4.6-2.1-6.1-4.6-6.1-2.9 0-4.7 2.6-4.7 6 0 3.1 1.6 5.7 5.3 5.7 1.6 0 2.8-0.5 3.4-0.7l-0.1-2.2zm-15-8.6h-1.8v2h1.8v6.2c0 2.4 1.1 3.3 3.2 3.3 0.8 0 1.4-0.2 1.8-0.4v-1.9c-0.2 0.1-0.6 0.2-1 0.2-0.8 0-1.2-0.4-1.2-1.6v-5.9h2.3v-2h-2.3v-3.2l-2.7 0.8v2.5zm-12.5 11.3h2.7v-6.6c0-1.5 0.5-2.7 1.9-2.7 1.1 0 1.6 0.7 1.6 2.5v6.8h2.7v-7.3c0-2.3-0.8-4.2-3.4-4.2-1.9 0-2.6 1.2-3 1.9h-0.1c0-0.6-0.1-1.2-0.1-1.7h-2.4c0.1 0.5 0.1 1.2 0.1 1.9v9.4zm-5.7 0h2.8v-15.6h-2.8v15.6z" fill="#1A171B"/>
	<path d="m137.7 47.1c0 2-0.6 3.2-2.2 3.2-1.1 0-1.7-0.7-1.7-1.7 0-1.7 1.4-2.1 3.7-2.1h0.2v0.6zm-5.2-3.5c0.5-0.4 1.7-1.1 3.1-1.1 1.5 0 2.1 0.9 2.1 2v0.4h-0.6c-3.5 0-6 0.9-6 4 0 2.1 1.6 3.3 3.4 3.3 1.6 0 2.5-0.4 3.3-1.3 0 0 0 0.7 0.1 1.1h2.5c-0.1-0.4-0.2-1.2-0.2-2v-5c0-2.8-0.8-4.6-4.4-4.6-1.7 0-2.8 0.5-3.6 0.8l0.3 2.4z" fill="#1A171B"/>
	<path d="m185.8 47.1c0 2-0.6 3.2-2.2 3.2-1.1 0-1.7-0.7-1.7-1.7 0-1.7 1.4-2.1 3.7-2.1h0.2v0.6zm-5.2-3.6c0.5-0.4 1.7-1.1 3.1-1.1 1.5 0 2.1 0.9 2.1 2v0.4h-0.6c-3.5 0-6 0.9-6 4 0 2.1 1.6 3.3 3.4 3.3 1.6 0 2.5-0.4 3.3-1.3 0 0 0 0.7 0.1 1.1h2.5c-0.1-0.4-0.2-1.2-0.2-2v-5c0-2.8-0.8-4.6-4.4-4.6-1.7 0-2.8 0.5-3.6 0.8l0.3 2.4z" fill="#1A171B"/>
	<path d="m115.6 63.4c0 0.7-0.2 1.2-0.8 1.2-0.4 0-0.6-0.3-0.6-0.6 0-0.6 0.5-0.8 1.4-0.8h0.1v0.2zm-1.9-1.3c0.2-0.2 0.6-0.4 1.1-0.4s0.8 0.3 0.8 0.7v0.2h-0.2c-1.3 0-2.2 0.3-2.2 1.5 0 0.8 0.6 1.2 1.2 1.2s0.9-0.2 1.2-0.5v0.4h0.9c0-0.2-0.1-0.4-0.1-0.7v-1.8c0-1-0.3-1.6-1.6-1.6-0.6 0-1 0.2-1.3 0.3l0.2 0.7z" fill="#1A171B"/>
	<path d="m124.6 63.4c0 0.7-0.2 1.2-0.8 1.2-0.4 0-0.6-0.3-0.6-0.6 0-0.6 0.5-0.8 1.4-0.8h0.1v0.2zm-1.9-1.3c0.2-0.2 0.6-0.4 1.1-0.4s0.8 0.3 0.8 0.7v0.2h-0.2c-1.3 0-2.2 0.3-2.2 1.5 0 0.8 0.6 1.2 1.2 1.2s0.9-0.2 1.2-0.5v0.4h0.9c0-0.2-0.1-0.4-0.1-0.7v-1.8c0-1-0.3-1.6-1.6-1.6-0.6 0-1 0.2-1.3 0.3l0.2 0.7z" fill="#1A171B"/>
</svg>
